<mxfile host="app.diagrams.net" agent="Mozilla/5.0 (Windows NT 10.0; Win64; x64) AppleWebKit/537.36 (KHTML, like Gecko) Chrome/137.0.0.0 Safari/537.36" version="27.1.3">
  <diagram name="Page-1" id="dR1q87yiB_YSjLnddUBI">
    <mxGraphModel dx="1251" dy="660" grid="1" gridSize="10" guides="1" tooltips="1" connect="1" arrows="1" fold="1" page="1" pageScale="1" pageWidth="850" pageHeight="1100" math="0" shadow="0">
      <root>
        <mxCell id="0" />
        <mxCell id="1" parent="0" />
        <mxCell id="J7oXDGR-yPXa7QncDIFQ-1" value="&lt;b&gt;Remote Host&lt;/b&gt;" style="rounded=1;whiteSpace=wrap;html=1;fillColor=#f8cecc;strokeColor=#b85450;" vertex="1" parent="1">
          <mxGeometry x="400" y="40" width="240" height="130" as="geometry" />
        </mxCell>
        <mxCell id="J7oXDGR-yPXa7QncDIFQ-3" style="edgeStyle=orthogonalEdgeStyle;rounded=0;orthogonalLoop=1;jettySize=auto;html=1;entryX=0;entryY=0.5;entryDx=0;entryDy=0;" edge="1" parent="1" source="J7oXDGR-yPXa7QncDIFQ-2" target="J7oXDGR-yPXa7QncDIFQ-1">
          <mxGeometry relative="1" as="geometry" />
        </mxCell>
        <mxCell id="J7oXDGR-yPXa7QncDIFQ-2" value="&lt;b&gt;Ansible Server&lt;/b&gt;" style="rounded=0;whiteSpace=wrap;html=1;fillColor=#dae8fc;strokeColor=#6c8ebf;" vertex="1" parent="1">
          <mxGeometry y="40" width="170" height="130" as="geometry" />
        </mxCell>
        <mxCell id="J7oXDGR-yPXa7QncDIFQ-4" value="&lt;b&gt;Modules/Collections&lt;/b&gt;" style="text;html=1;align=center;verticalAlign=middle;resizable=0;points=[];autosize=1;strokeColor=none;fillColor=none;" vertex="1" parent="1">
          <mxGeometry x="195" y="60" width="140" height="30" as="geometry" />
        </mxCell>
      </root>
    </mxGraphModel>
  </diagram>
</mxfile>
